pedal_clip_forces.mot
version=1
nRows=205
nColumns=4
inDegrees=yes
endheader
time	PedalClip_calcn_r_Fx	PedalClip_calcn_r_Fy	PedalClip_calcn_r_Fz
0	20.0448645838286	-25.4775314612596	-0
0.00124211	20.8289581160562	-24.896455582226	-0
0.00468971	21.5946277497681	-24.3542687881981	-0
0.01019051	22.3418986274358	-23.8509705590698	-0
0.01381228	23.0708004044036	-23.3865539584848	-0
0.01957102	23.7813667790272	-22.9610082299743	-0
0.02199089	24.4736356561547	-22.5743257668982	-0
0.02542201	25.1476509528159	-22.2264979056795	-0
0.0293994	25.803468781785	-21.9175128954365	-0
0.03130504	26.4411559622044	-21.6473551463822	-0
0.03566688	27.0607824261866	-21.4160043296568	-0
0.03793918	27.6624118999194	-21.2234342871195	-0
0.0412042	28.2461013324963	-21.0696116973883	-0
0.04339874	28.8119015264798	-20.954494430835	-0
0.04620498	29.3598485241351	-20.8780295143547	-0
0.04835177	29.8899606867716	-20.8401506251339	-0
0.05049855	30.4022239104431	-20.8407750642795	-0
0.05334466	30.8965846336612	-20.8798002875478	-0
0.05554349	31.3729310610321	-20.9570869051701	-0
0.05774232	31.8310689085843	-21.0724086635025	-0
0.05994115	32.2706897932499	-21.2255022955394	-0
0.06184456	32.6912963633609	-21.4161726901953	-0
0.06374798	33.0921502233733	-21.6443770579303	-0
0.06565139	33.4724993982128	-21.9106821384671	-0
0.0675548	33.8329322479304	-22.2182274573477	-0
0.06945821	34.1767365078611	-22.6012940430253	-0
0.07136162	34.5061340685489	-23.0382150332826	-0
0.07305389	34.8210357627409	-23.5311725106108	-0
0.07474615	35.1217648454825	-24.0541208642046	-0
0.07643841	35.4092349580963	-24.5924868906888	-0
0.07813067	35.6849068490418	-25.1516511180218	-0
0.07982293	35.9496613087239	-25.7336110614478	-0
0.0815152	36.2013720580238	-26.3359694871935	-0
0.08320746	36.4376928280368	-26.9564358902159	-0
0.08489972	36.6577329578885	-27.5919148229697	-0
0.08641289	36.8630117346536	-28.2396016908386	-0
0.08792606	37.0557700384563	-28.8968346712413	-0
0.08943923	37.2371621595946	-29.5635029828365	-0
0.09095239	37.4087456536453	-30.2395049011756	-0
0.09246556	37.573896980568	-30.9238433666915	-0
0.09397873	37.7349380441895	-31.6141460963977	-0
0.09528583	37.892425411833	-32.3083759567988	-0
0.09659294	38.0442083242961	-33.0050779301687	-0
0.09797361	38.1891974964071	-33.7039251583316	-0
0.09935429	38.326466104076	-34.402065647199	-0
0.10073497	38.4558323057932	-35.0969346959322	-0
0.10211565	38.5778541306157	-35.7863952973641	-0
0.10335698	38.6920277220982	-36.471114507802	-0
0.10459832	38.7976143591804	-37.1515868151183	-0
0.10583965	38.8938631035136	-37.8293795715381	-0
0.10708099	38.9822429461935	-38.5047188274705	-0
0.10832232	39.0663743990984	-39.1769717313861	-0
0.10956365	39.1500100053538	-39.8459312310383	-0
0.11080499	39.2344806000137	-40.5113187151714	-0
0.11204632	39.31978406659	-41.1728159409998	-0
0.11307832	39.4048077882036	-41.830099766583	-0
0.11411033	39.4892508306573	-42.4827007319025	-0
0.11522599	39.5733793989619	-43.1301490961979	-0
0.11656527	39.6578056786388	-43.7724885070848	-0
0.11773869	39.7432105619065	-44.4100734683122	-0
0.11877771	39.8297722893102	-45.0436282781519	-0
0.11981672	39.9169910628973	-45.673943978129	-0
0.12073426	40.004771427041	-46.3018063544741	-0
0.12198111	40.0931959631781	-46.9279369971191	-0
0.12322796	40.1823810112143	-47.5528157758694	-0
0.12406025	40.2724684303046	-48.1767460106371	-0
0.1251759	40.3634834310735	-48.7999937727371	-0
0.12629155	40.4551906711972	-49.4229157935962	-0
0.12740719	40.5472664508053	-50.0456756133746	-0
0.12852284	40.6393790746485	-50.6684464424529	-0
0.12936941	40.7311039588611	-51.2912493163152	-0
0.13042032	40.8219953906971	-51.9143196701485	-0
0.13121335	40.9117216639488	-52.5376011306483	-0
0.13232872	41.0002447446832	-53.1608612317866	-0
0.1334441	41.0875056060237	-53.7836035093416	-0
0.13413719	41.1734798499118	-54.4053552881237	-0
0.13523065	41.2579448270847	-55.0255527522606	-0
0.1363241	41.3406020446593	-55.6436877052933	-0
0.13741755	41.4211125383574	-56.2592120137614	-0
0.1394393	41.4991743784525	-56.8716060388879	-0
0.14007223	41.5746063370713	-57.4805321604098	-0
0.14070517	41.6474715587515	-58.0859446350301	-0
0.14163212	41.7177720032344	-58.6876924207263	-0
0.14237746	41.7856078633496	-59.2857658112183	-0
0.14338476	41.8509801825775	-59.8798268177188	-0
0.14439207	41.9139996439896	-60.469349541631	-0
0.14512452	41.974942129184	-61.0540756323448	-0
0.14625199	42.0342003648607	-61.6340219316646	-0
0.14737947	42.0920663588316	-62.2092072291665	-0
0.14800291	42.1488686578886	-62.7799281165198	-0
0.1488672	42.2048396738766	-63.3463658097799	-0
0.14964593	42.2601661646175	-63.9087520153066	-0
0.15061233	42.3149071123201	-64.4673155363545	-0
0.15135312	42.3692098445265	-65.0225659848459	-0
0.15209392	42.4231938669103	-65.5749615681731	-0
0.15321092	42.4771625454743	-66.1252985566662	-0
0.15432791	42.5313797660622	-66.6743915831734	-0
0.15497593	42.5859978858557	-67.222856883076	-0
0.15580812	42.6410716067181	-67.7710429733369	-0
0.15649403	42.6965831988852	-68.3190676768509	-0
0.15736632	42.7524194449558	-68.8667461650834	-0
0.15804832	42.808448985157	-69.4136447517361	-0
0.15891065	42.8645440687989	-69.9592509545385	-0
0.15957665	42.9206736555087	-70.5032543895119	-0
0.16041861	42.976751534177	-71.0454640322284	-0
0.16107532	43.0327606683001	-71.5861171965354	-0
0.16190325	43.0886814983578	-72.1254908434528	-0
0.16255153	43.1444353538843	-72.6636811609367	-0
0.16336744	43.1998677326658	-73.2006155157829	-0
0.16400983	43.2548235674314	-73.7361689949259	-0
0.16481648	43.3090809287192	-74.2701459201194	-0
0.16545314	43.3624172424148	-74.8023949410899	-0
0.16625098	43.4146002747556	-75.3327881136669	-0
0.1668827	43.4654634209832	-75.8614295195522	-0
0.16767276	43.5148887272544	-76.3885811325539	-0
0.1682999	43.5628738437982	-76.9145820601908	-0
0.16908273	43.6094714388971	-77.4397495105097	-0
0.16970565	43.6548410539793	-77.9644651666007	-0
0.17048181	43.6991328394306	-78.4890055685331	-0
0.17110084	43.7425011258845	-79.0135510073961	-0
0.17187079	43.7849806867476	-79.5380706906195	-0
0.17248617	43.8266305835725	-80.0626723555303	-0
0.17325033	43.8674667560895	-80.5874999575057	-0
0.17386232	43.9075324417435	-81.1127181088725	-0
0.17462104	43.9468295842062	-81.6384018339512	-0
0.17522984	43.9853977466049	-82.164660177229	-0
0.17598346	44.0232371824109	-82.6915492902642	-0
0.17658928	44.0603889949319	-83.2191790411843	-0
0.17733811	44.0968532025464	-83.7476096821114	-0
0.17794111	44.1326709643245	-84.276956134105	-0
0.17868543	44.1678415188649	-84.8072809364479	-0
0.17928579	44.202406158732	-85.3387030223015	-0
0.18002586	44.2363631295111	-85.8712863926423	-0
0.18062373	44.2697532988062	-86.4051521069175	-0
0.18135981	44.3025738811242	-86.9403644523762	-0
0.18195533	44.3348655883193	-87.4770465974248	-0
0.18268764	44.3666248883524	-88.0152636149217	-0
0.18328096	44.3978925420392	-88.5551409351419	-0
0.18400972	44.4286645501295	-89.0967443906765	-0
0.18460097	44.4589819690533	-89.6402016905558	-0
0.18532639	44.4888405302919	-90.1855796039965	-0
0.18591569	44.5182817285918	-90.7330083424019	-0
0.18663797	44.5473010922356	-91.2825558075517	-0
0.18722545	44.5759405868728	-91.8343548397648	-0
0.18794477	44.6041955463556	-92.3884747123478	-0
0.18853055	44.6321084438139	-92.9450512387378	-0
0.1892471	44.6596744916534	-93.5041554614991	-0
0.18983128	44.6869367212757	-94.0659264205153	-0
0.19054524	44.7138902661618	-94.6304372461296	-0
0.19112794	44.7405787647742	-95.1978306748519	-0
0.19183948	44.7669973773131	-95.7681824130671	-0
0.1924208	44.7931904232154	-96.3416390788885	-0
0.19313008	44.8191531189884	-96.9182791690775	-0
0.19371012	44.8449305091133	-97.4982536982121	-0
0.19441731	44.8705180069693	-98.0816445200692	-0
0.19499618	44.8959614732873	-98.6686071523734	-0
0.19570142	44.9212565022392	-99.2592270058618	-0
0.19627922	44.9464497918221	-99.8536649594344	-0
0.19698269	44.9715373174953	-100.452010889052	-0
0.19755951	44.9965667319806	-101.054431027596	-0
0.19826133	45.0215342847236	-101.661019851571	-0
0.19883728	45.0464885599953	-102.271950424136	-0
0.19953763	45.0714264003243	-102.887323250738	-0
0.20011279	45.0963974823996	-103.50731775859	-0
0.20081177	45.1213989344231	-104.132040236123	-0
0.20138626	45.1464814150079	-104.761678943995	-0
0.20208409	45.1716429051116	-105.396348185901	-0
0.20265795	45.196935404857	-106.036243158013	-0
0.20335467	45.2223572769731	-106.681484851048	-0
0.20392808	45.2479618030214	-107.332279362952	-0
0.20462397	45.273749005282	-107.988757557226	-0
0.20519692	45.2997741002805	-108.651131319685	-0
0.20589193	45.3260376670628	-109.319537742846	-0
0.20646466	45.3525962965043	-109.994202184453	-0
0.20715919	45.3794529492243	-110.675274082752	-0
0.20773159	45.4066661917089	-111.362982279189	-0
0.20842542	45.4342386762964	-112.057481713325	-0
0.20899787	45.4622294850145	-112.759020501405	-0
0.20969166	45.4906439953566	-113.467770255915	-0
0.21026385	45.5195433954882	-114.183980039696	-0
0.21095702	45.5489325410952	-114.907836212054	-0
0.21152962	45.5788745621253	-115.639639978471	-0
0.21222334	45.6093800687852	-116.37961909242	-0
0.21279565	45.6405157668813	-117.128070438499	-0
0.21348861	45.6722879448637	-117.88523951193	-0
0.21406186	45.7047775490633	-118.651495945762	-0
0.21475627	45.7380520755397	-119.426881141744	-0
0.21532895	45.772194954922	-120.211451641545	-0
0.21602207	45.8072261260833	-121.005108010801	-0
0.21659657	45.8431239061408	-121.807875896876	-0
0.21729261	45.8798507699739	-122.620018353533	-0
0.21786585	45.9173678483097	-123.441972680638	-0
0.21855928	45.9556586830752	-124.274384477114	-0
0.21913584	45.9947272826824	-125.117538319968	-0
0.21983482	46.0345973273525	-125.971614699044	-0
0.22040858	46.0753228220039	-126.837179505513	-0
0.22110213	46.1170041728223	-127.715277455247	-0
0.22168193	46.1597806862772	-128.606253738653	-0
0.2223858	46.2038158759755	-129.510490725061	-0
0.22295978	46.249341658893	-130.429412019094	-0
0.22365269	46.2963978067741	-131.36377636518	-0
0.22423761	46.3450448981047	-132.313812849845	-0
0.22494948	46.3953178131317	-133.279683233336	-0
0.22552309	46.4472743758815	-134.262042233988	-0
0.22621392	46.5010442764923	-135.262356695908	-0
